<svg width="116" height="28" viewBox="0 0 116 28" fill="none" xmlns="http://www.w3.org/2000/svg">
<path d="M6.303 10.262H9.24C11.22 10.262 12.727 10.757 13.761 11.747C14.817 12.715 15.345 14.068 15.345 15.806V17.72C15.345 19.458 14.817 20.811 13.761 21.779C12.727 22.747 11.22 23.209 9.24 23.165L1.419 23V18.743H9.933C10.241 18.743 10.395 18.589 10.395 18.281V15.146C10.395 14.838 10.241 14.684 9.933 14.684H6.996C5.016 14.684 3.498 14.2 2.442 13.232C1.408 12.242 0.891 10.878 0.891 9.14V7.325C0.891 5.587 1.408 4.234 2.442 3.266C3.498 2.298 5.016 1.836 6.996 1.88L14.553 2.045V6.302H6.303C5.995 6.302 5.841 6.456 5.841 6.764V9.8C5.841 10.108 5.995 10.262 6.303 10.262ZM28.7507 6.104H23.4047C23.0967 6.104 22.9427 6.258 22.9427 6.566V18.479C22.9427 18.787 23.0967 18.941 23.4047 18.941H28.7507C29.0587 18.941 29.2127 18.787 29.2127 18.479V6.566C29.2127 6.258 29.0587 6.104 28.7507 6.104ZM17.9927 18.05V6.995C17.9927 5.257 18.4877 3.948 19.4777 3.068C20.4677 2.166 21.9527 1.715 23.9327 1.715H28.2227C30.2027 1.715 31.6877 2.166 32.6777 3.068C33.6677 3.948 34.1627 5.257 34.1627 6.995V18.05C34.1627 19.788 33.6677 21.108 32.6777 22.01C31.6877 22.89 30.2027 23.33 28.2227 23.33H23.9327C21.9527 23.33 20.4677 22.89 19.4777 22.01C18.4877 21.108 17.9927 19.788 17.9927 18.05ZM26.1437 27.125L25.0877 21.68H29.3447L30.7637 27.125H26.1437ZM49.7918 18.743V23H37.7798V2.045H42.6638V19.403L42.0038 18.743H49.7918ZM66.404 6.83V10.46H62.444L62.774 10.13V18.578C62.774 18.886 62.928 19.04 63.236 19.04H66.404V23H63.698C61.718 23 60.288 22.615 59.408 21.845C58.528 21.053 58.088 19.788 58.088 18.05V10.13L58.418 10.46H56.438V6.83H58.418L58.088 7.16V2.705H62.774V7.16L62.444 6.83H66.404ZM76.4693 6.5H77.2943V10.625H73.7303C73.4223 10.625 73.2683 10.779 73.2683 11.087L73.3343 23H68.6483L68.5823 6.83H72.8393L73.2683 10.295H73.1033C73.1033 9.129 73.3673 8.205 73.8953 7.523C74.4453 6.841 75.3033 6.5 76.4693 6.5ZM83.0904 23.33H82.5954C81.1214 23.33 80.0324 23.011 79.3284 22.373C78.6464 21.735 78.3054 20.679 78.3054 19.205V17.621C78.3054 15.971 78.6794 14.816 79.4274 14.156C80.1754 13.496 81.4514 13.166 83.2554 13.166H86.7864V16.466H83.3874C83.0794 16.466 82.9254 16.62 82.9254 16.928V19.073C82.9254 19.381 83.0794 19.535 83.3874 19.535H86.2584V11.186C86.2584 10.878 86.1044 10.724 85.7964 10.724L79.4934 10.757V6.797L85.8624 6.764C87.6884 6.742 88.9974 7.105 89.7894 7.853C90.5814 8.579 90.9774 9.811 90.9774 11.549V23H86.6874L86.2584 19.535H86.4234C86.4234 20.679 86.1594 21.603 85.6314 22.307C85.1034 22.989 84.2564 23.33 83.0904 23.33ZM98.8386 23H94.1526V6.83H98.8386V23ZM98.8386 4.784H94.1526V0.823998H98.8386V4.784ZM110.221 6.5H111.079C112.575 6.5 113.664 6.819 114.346 7.457C115.028 8.073 115.369 9.129 115.369 10.625V23H110.683V10.757C110.683 10.449 110.529 10.295 110.221 10.295H107.482C107.174 10.295 107.02 10.449 107.02 10.757L107.086 23H102.4L102.334 6.83H106.591L107.02 10.295H106.855C106.855 9.129 107.119 8.205 107.647 7.523C108.197 6.841 109.055 6.5 110.221 6.5Z" fill="#373843"/>
</svg>
